<svg width="48" height="48" viewBox="0 0 48 48" fill="none" xmlns="http://www.w3.org/2000/svg">
<path d="M24 41.5C20.1544 41.5 16.4662 39.9723 13.747 37.253C11.0277 34.5338 9.5 30.8456 9.5 27C9.5 23.1544 11.0277 19.4662 13.747 16.747C16.4662 14.0277 20.1544 12.5 24 12.5H29C29.3978 12.5 29.7794 12.658 30.0607 12.9393C30.342 13.2206 30.5 13.6022 30.5 14C30.5 14.3978 30.342 14.7794 30.0607 15.0607C29.7794 15.342 29.3978 15.5 29 15.5H24C21.7255 15.5 19.5021 16.1745 17.6109 17.4381C15.7198 18.7017 14.2458 20.4978 13.3754 22.5991C12.505 24.7005 12.2772 27.0128 12.721 29.2435C13.1647 31.4743 14.26 33.5234 15.8683 35.1317C17.4766 36.74 19.5257 37.8353 21.7565 38.279C23.9872 38.7228 26.2995 38.495 28.4009 37.6246C30.5022 36.7542 32.2983 35.2802 33.5619 33.3891C34.8255 31.4979 35.5 29.2745 35.5 27C35.5 26.6022 35.658 26.2206 35.9393 25.9393C36.2206 25.658 36.6022 25.5 37 25.5C37.3978 25.5 37.7794 25.658 38.0607 25.9393C38.342 26.2206 38.5 26.6022 38.5 27C38.4947 30.844 36.9653 34.5291 34.2472 37.2472C31.5291 39.9653 27.844 41.4947 24 41.5Z" fill="black"/>
<path d="M23.9998 21.4998C23.8027 21.5007 23.6075 21.4623 23.4254 21.3868C23.2434 21.3112 23.0783 21.2 22.9398 21.0598C22.6589 20.7786 22.5011 20.3973 22.5011 19.9998C22.5011 19.6023 22.6589 19.2211 22.9398 18.9398L27.8798 13.9998L22.9398 9.05982C22.7924 8.9225 22.6742 8.75689 22.5923 8.5729C22.5103 8.3889 22.4662 8.19027 22.4626 7.98886C22.4591 7.78746 22.4961 7.5874 22.5716 7.40062C22.647 7.21385 22.7593 7.04418 22.9017 6.90174C23.0442 6.7593 23.2138 6.64702 23.4006 6.57157C23.5874 6.49613 23.7875 6.45908 23.9889 6.46264C24.1903 6.46619 24.3889 6.51027 24.5729 6.59226C24.7569 6.67424 24.9225 6.79245 25.0598 6.93982L31.0598 12.9398C31.3407 13.2211 31.4985 13.6023 31.4985 13.9998C31.4985 14.3973 31.3407 14.7786 31.0598 15.0598L25.0598 21.0598C24.9213 21.2 24.7562 21.3112 24.5742 21.3868C24.3922 21.4623 24.1969 21.5007 23.9998 21.4998Z" fill="black"/>
</svg>
